<svg xmlns="http://www.w3.org/2000/svg" width="24" height="24" viewBox="0 0 24 24">
    <g fill="none" fill-rule="evenodd">
        <g fill-rule="nonzero">
            <g>
                <g>
                    <path d="M0 0H24V24H0z" transform="translate(-16 -1065) translate(16 614) translate(0 451)"/>
                    <path fill="#0B1325" d="M12 3c2.252 0 4 1.748 4 4 0 .552-.448 1-1 1-.513 0-.936-.386-.993-.883L14 7c0-1.148-.852-2-2-2-1.148 0-2 .852-2 2 0 .81.456 1.495 1.17 1.796l.146.055c.371.124.633.451.677.833L12 9.8V12c0 .307-.141.595-.378.783l-.108.074L2 18.565V19h20v-.41l-7.084-3.915c-.449-.248-.632-.79-.442-1.253l.05-.106c.249-.449.791-.632 1.254-.442l.106.05 7.6 4.2c.283.157.47.44.509.756L24 18v2c0 .513-.386.936-.883.993L23 21H1c-.513 0-.936-.386-.993-.883L0 20v-2c0-.307.141-.595.378-.783l.108-.074L10 11.433v-.987l-.048-.026c-1.141-.659-1.88-1.852-1.947-3.214L8 7c0-2.252 1.748-4 4-4z" transform="translate(-16 -1065) translate(16 614) translate(0 451)"/>
                </g>
            </g>
        </g>
    </g>
</svg>
